# xmcd
#
# Track frame offsets: 
#        300
#        15430
#        33682
#        50062
#        68094
#        88496
#        109851
#        127014
#        140399
#        159293
#        180214
#        194795
#        215222
#        234188
#
# Disc length: 3443 seconds
#
# Revision: 4
# Processed by: cddbd v1.5.2PL0 Copyright (c) Steve Scherf et al.
# Submitted via: ExactAudioCopy v1.0b1
#
DISCID=cc0d6f0e
DTITLE=Blues Company - Public Relations
DYEAR=1993
DGENRE=Blues
TTITLE0=Public Relations
TTITLE1=Red Blood
TTITLE2=Dance All Nite
TTITLE3=The Midnite Train
TTITLE4=Just Can´t Keep From Crying
TTITLE5=She´s Gone
TTITLE6=I´ve Got The Blues
TTITLE7=The Rhythm Of Zydeco
TTITLE8=Cry For Me
TTITLE9=Big Bad Wolf
TTITLE10=The Gambler
TTITLE11=Blow Jay Blow
TTITLE12=Change
TTITLE13=Crippled Mind
EXTD=
EXTT0=
EXTT1=
EXTT2=
EXTT3=
EXTT4=
EXTT5=
EXTT6=
EXTT7=
EXTT8=
EXTT9=
EXTT10=
EXTT11=
EXTT12=
EXTT13=
PLAYORDER=
